<?xml version="1.0" standalone="no"?>
<!DOCTYPE svg PUBLIC "-//W3C//DTD SVG 20010904//EN"
 "http://www.w3.org/TR/2001/REC-SVG-20010904/DTD/svg10.dtd">
<svg version="1.0" xmlns="http://www.w3.org/2000/svg"
 width="512.000000pt" height="512.000000pt" viewBox="0 0 512.000000 512.000000"
 preserveAspectRatio="xMidYMid meet">
<metadata>
Created by potrace 1.14, written by Peter Selinger 2001-2017
</metadata>
<g transform="translate(0.000000,512.000000) scale(0.100000,-0.100000)"
fill="#000000" stroke="none">
<path d="M2485 4471 c-66 -16 -138 -65 -286 -195 -19 -17 -46 -40 -60 -51 -79
-65 -446 -372 -455 -380 -6 -5 -31 -26 -55 -46 -363 -303 -749 -626 -769 -643
-14 -11 -60 -50 -102 -85 -92 -75 -123 -128 -114 -193 16 -112 141 -174 235
-117 19 11 77 58 130 103 53 45 148 124 211 176 63 51 117 96 120 100 3 3 154
130 336 282 182 151 342 285 355 296 22 19 293 244 404 337 27 22 53 45 59 51
6 6 24 19 39 29 35 23 -8 55 482 -355 214 -179 401 -334 414 -345 13 -11 45
-38 71 -60 25 -22 68 -58 95 -80 53 -43 244 -203 285 -238 107 -92 329 -274
358 -293 93 -63 232 5 238 118 3 76 -25 120 -135 207 -24 19 -49 40 -55 45 -6
6 -37 33 -68 59 l-57 48 -3 369 c-3 354 -4 370 -24 396 -47 64 -63 69 -214 69
-124 0 -141 -2 -166 -21 -65 -48 -69 -60 -72 -240 -2 -91 -7 -164 -11 -162 -5
2 -31 22 -57 44 -27 23 -98 83 -159 133 -60 51 -130 109 -155 130 -25 21 -79
66 -120 100 -41 34 -84 70 -95 79 -114 95 -141 118 -151 127 -6 6 -31 26 -54
45 -24 19 -60 49 -79 66 -106 91 -207 121 -316 95z"/>
<path d="M2438 3738 c-68 -57 -132 -110 -143 -120 -11 -9 -69 -58 -130 -108
-60 -50 -121 -101 -135 -114 -14 -12 -61 -51 -105 -86 -44 -36 -82 -68 -85
-71 -3 -3 -156 -131 -340 -284 -184 -154 -337 -282 -340 -285 -3 -3 -41 -35
-85 -70 -44 -36 -88 -73 -98 -83 -17 -17 -18 -51 -15 -635 l3 -617 26 -57 c40
-91 107 -161 196 -205 l77 -38 1290 0 c1244 0 1293 1 1340 19 69 27 128 68
175 125 23 27 41 51 41 54 0 2 8 22 17 43 9 22 19 46 22 54 2 8 6 290 8 627 4
678 10 615 -59 669 -15 12 -51 41 -80 67 -29 25 -136 114 -238 198 -102 84
-187 156 -190 159 -3 3 -235 198 -517 433 l-512 427 -123 -102z m524 -1203
c78 -53 73 -10 76 -667 l3 -588 -481 0 -480 0 0 575 c0 620 0 614 52 663 14
13 38 27 54 32 16 5 189 9 385 9 l356 0 35 -24z"/>
</g>
</svg>
